<?xml version="1.0" standalone="no"?><!DOCTYPE svg PUBLIC "-//W3C//DTD SVG 1.1//EN" "http://www.w3.org/Graphics/SVG/1.1/DTD/svg11.dtd"><svg t="1656516475589" class="icon" viewBox="0 0 1024 1024" version="1.1" xmlns="http://www.w3.org/2000/svg" p-id="2226" xmlns:xlink="http://www.w3.org/1999/xlink" width="256" height="256"><defs><style type="text/css">@font-face { font-family: feedback-iconfont; src: url("//at.alicdn.com/t/font_1031158_u69w8yhxdu.woff2?t=1630033759944") format("woff2"), url("//at.alicdn.com/t/font_1031158_u69w8yhxdu.woff?t=1630033759944") format("woff"), url("//at.alicdn.com/t/font_1031158_u69w8yhxdu.ttf?t=1630033759944") format("truetype"); }
</style></defs><path d="M512 0C228.266667 0 0 228.266667 0 512s228.266667 512 512 512 512-228.266667 512-512S795.733333 0 512 0z m224 727.466667c0 23.466667-17.066667 40.533333-40.533333 40.533333H328.533333c-21.333333 0-40.533333-19.2-40.533333-40.533333V296.533333c0-23.466667 17.066667-40.533333 40.533333-40.533333h366.933334c21.333333 0 40.533333 19.2 40.533333 40.533333v430.933334z" fill="#673ab8" p-id="2227"></path><path d="M473.6 727.466667h221.866667V411.733333H473.6v315.733334zM328.533333 727.466667h106.666667V411.733333h-106.666667v315.733334zM328.533333 296.533333v74.666667h369.066667V298.666667H328.533333z" fill="#673ab8" p-id="2228"></path></svg>